<?xml version="1.0" standalone="no"?>
<!DOCTYPE svg PUBLIC "-//W3C//DTD SVG 20010904//EN"
 "http://www.w3.org/TR/2001/REC-SVG-20010904/DTD/svg10.dtd">
<svg version="1.0" xmlns="http://www.w3.org/2000/svg"
 width="260.000000pt" height="260.000000pt" viewBox="0 0 260.000000 260.000000"
 preserveAspectRatio="xMidYMid meet">
<metadata>
Created by potrace 1.11, written by Peter Selinger 2001-2013
</metadata>
<g transform="translate(0.000000,260.000000) scale(0.100000,-0.100000)"
fill="#000000" stroke="none">
<path d="M0 1300 l0 -1300 1300 0 1300 0 0 1300 0 1300 -1300 0 -1300 0 0
-1300z m2009 881 c18 -13 42 -42 52 -65 18 -39 19 -82 19 -839 l0 -798 -25
-24 c-13 -14 -33 -25 -44 -25 -11 0 -61 35 -112 77 -50 43 -97 82 -104 88 -10
7 -30 -9 -77 -60 -136 -152 -155 -168 -185 -160 -17 4 -54 36 -93 78 -36 40
-81 89 -100 109 l-35 37 -89 -100 c-110 -124 -126 -136 -164 -119 -15 7 -69
59 -121 116 -52 57 -97 104 -100 104 -3 0 -44 -33 -91 -73 -121 -105 -143
-114 -180 -77 -20 20 -20 33 -20 830 0 873 -2 837 52 887 12 12 34 26 48 32
16 6 259 9 680 8 l655 -2 34 -24z"/>
<path d="M681 2066 c-8 -10 -10 -203 -9 -716 l3 -703 65 55 c73 63 96 72 126
55 11 -7 63 -58 114 -115 89 -97 95 -102 110 -85 9 10 52 58 96 107 43 48 89
92 102 97 34 13 57 -4 161 -119 l93 -102 57 62 c32 35 75 83 96 107 69 76 87
75 194 -17 l51 -44 -2 714 -3 713 -621 3 c-516 2 -623 0 -633 -12z m674 -96
c11 -12 20 -41 23 -73 4 -51 6 -54 49 -77 90 -48 150 -186 107 -248 -29 -41
-114 -19 -114 30 0 38 -29 87 -61 103 -89 46 -187 -43 -149 -135 16 -40 47
-57 120 -69 80 -13 140 -49 178 -107 80 -120 36 -282 -95 -348 -28 -14 -33
-22 -33 -52 0 -53 -24 -100 -54 -108 -53 -13 -86 24 -86 98 0 37 -4 46 -21 51
-35 11 -111 87 -130 130 -26 57 -25 119 3 145 12 11 31 20 42 20 28 0 66 -39
66 -69 0 -73 78 -124 146 -96 58 24 84 98 55 154 -15 27 -62 51 -99 51 -81 0
-177 65 -213 145 -26 57 -24 138 5 201 24 52 84 110 124 120 19 5 22 13 22 54
0 84 68 132 115 80z"/>
</g>
</svg>
