<?xml version="1.0" encoding="utf-8"?>
<!-- Generator: Adobe Illustrator 25.0.1, SVG Export Plug-In . SVG Version: 6.00 Build 0)  -->
<svg version="1.1"
	 id="Layer_1" xmlns:cc="http://creativecommons.org/ns#" xmlns:dc="http://purl.org/dc/elements/1.1/" xmlns:inkscape="http://www.inkscape.org/namespaces/inkscape" xmlns:rdf="http://www.w3.org/1999/02/22-rdf-syntax-ns#" xmlns:sodipodi="http://sodipodi.sourceforge.net/DTD/sodipodi-0.dtd" xmlns:svg="http://www.w3.org/2000/svg"
	 xmlns="http://www.w3.org/2000/svg" xmlns:xlink="http://www.w3.org/1999/xlink" x="0px" y="0px" viewBox="0 0 8.5 5.9"
	 style="enable-background:new 0 0 8.5 5.9;" xml:space="preserve">
<style type="text/css">
	.st0{fill:#1282EB;}
</style>
<g>
	<path class="st0" d="M1.8,0C1.8,0,1.8,0,1.8,0C1.7,0,1.7,0.1,1.6,0.1L0,2.8C0,2.9,0,3,0,3.1l1.6,2.7c0,0.1,0.1,0.1,0.2,0.1h6.3
		c0.1,0,0.3-0.1,0.3-0.3V0.3C8.5,0.1,8.3,0,8.2,0L1.8,0C1.8,0,1.8,0,1.8,0z M2,0.5h5.9v4.9H2L0.6,3L2,0.5z M4,1.7C4,1.7,4,1.7,4,1.7
		C3.8,1.7,3.7,1.9,3.8,2c0,0.1,0,0.1,0.1,0.2L4.6,3L3.8,3.8C3.7,3.9,3.7,4,3.8,4.1c0.1,0.1,0.3,0.1,0.4,0c0,0,0,0,0,0L5,3.3l0.8,0.8
		c0.1,0.1,0.3,0.1,0.4,0c0.1-0.1,0.1-0.3,0-0.4L5.4,3l0.8-0.8c0.1-0.1,0.1-0.3,0-0.4C6.1,1.7,6.1,1.7,6,1.7c-0.1,0-0.1,0-0.2,0.1
		L5,2.6L4.2,1.8C4.2,1.7,4.1,1.7,4,1.7z"/>
</g>
</svg>
