<?xml version="1.0" encoding="utf-8"?>
<!-- Generator: Adobe Illustrator 25.0.1, SVG Export Plug-In . SVG Version: 6.00 Build 0)  -->
<svg version="1.1" id="Layer_1" xmlns="http://www.w3.org/2000/svg" xmlns:xlink="http://www.w3.org/1999/xlink" x="0px" y="0px"
	 viewBox="0 0 76.1 90.8" style="enable-background:new 0 0 76.1 90.8;" xml:space="preserve">
<style type="text/css">
	.st0{fill-rule:evenodd;clip-rule:evenodd;fill:#1282EB;}
</style>
<path id="logo" class="st0" d="M76.1,8.2C76,3.7,72.4,0.1,68,0c-0.5,0-1.1,0-1.6,0h-53c-1.8,0-3.6,0-5.3,0C3.6,0.1,0,3.7,0,8.2v76.5
	c0,0.5,0.1,1,0.4,1.5c0.1,0.2,0.3,0.5,0.4,0.7C1.4,87.6,2.3,88,3.3,88c0.8,0,1.6-0.3,2.2-0.9c0,0,0.1-0.1,0.1-0.1c3-2.6,6-5.1,9-7.7
	c2.7,3,5.4,6,8.1,8.9c0.5,0.5,1,1.1,1.4,1.6c1.3,1.3,3.4,1.3,4.6,0c3.1-3.4,6.2-6.8,9.3-10.2c2.6,2.9,5.2,5.8,7.8,8.6
	c0.5,0.5,1,1.1,1.4,1.6c1.3,1.3,3.4,1.3,4.6,0c3.2-3.5,6.4-7,9.6-10.5c2.5,2.1,5,4.3,7.5,6.4c0.5,0.4,1,0.8,1.4,1.2
	c1.3,1.3,3.4,1.2,4.7-0.1c0.6-0.6,0.9-1.4,0.9-2.3V12.8C76.1,11.3,76.1,9.7,76.1,8.2z M69.4,7.4L69.4,7.4
	C69.4,7.4,69.4,7.4,69.4,7.4L69.4,7.4z M69.3,7.4L69.3,7.4C69.3,7.3,69.3,7.3,69.3,7.4L69.3,7.4z M7.4,6.8L7.4,6.8
	C7.4,6.8,7.4,6.8,7.4,6.8L7.4,6.8z M7.3,6.8L7.3,6.8L7.3,6.8L7.3,6.8z M65,73.6c-0.5-0.4-1-0.8-1.4-1.2c-0.6-0.6-1.5-0.9-2.3-1
	c-0.9,0-1.7,0.4-2.3,1c-3.1,3.4-6.2,6.8-9.3,10.2c-2.6-2.9-5.2-5.7-7.8-8.6c-0.5-0.5-1-1.1-1.4-1.6c-1.3-1.3-3.4-1.3-4.6,0
	c-3.1,3.4-6.2,6.8-9.3,10.2c-2.6-2.9-5.2-5.7-7.8-8.6c-0.5-0.5-1-1.1-1.4-1.6c-0.6-0.6-1.4-1-2.3-1c-0.9,0-1.7,0.4-2.3,1
	c-2,1.7-4,3.4-5.9,5.1V8.2c0-0.1,0-0.2,0-0.3c0-0.1,0.1-0.3,0.1-0.4c0-0.1,0.1-0.2,0.2-0.3L6.8,7.4l0,0c0,0,0.1-0.1,0.1-0.2
	c0,0,0,0,0,0C7,7.1,7,7.1,7.1,7L7.2,7l0,0l0,0l0,0c0.1-0.1,0.3-0.2,0.4-0.2c0.1,0,0.2-0.1,0.4-0.1c0.6,0,1.1,0,1.7,0h51.2
	c2.4,0,4.8,0,7.2,0c0.1,0,0.2,0,0.3,0c0.1,0,0.3,0.1,0.4,0.1c0.1,0,0.2,0.1,0.3,0.2l-0.1-0.1l0,0c0,0,0.1,0.1,0.1,0.1l0,0
	C69,7,69.1,7,69.1,7.1l0.1,0.1l0,0l0,0l0,0c0.1,0.1,0.2,0.3,0.2,0.4c0,0.1,0.1,0.2,0.1,0.4c0,0.7,0,1.4,0,2.1v67.5
	C68,76.2,66.5,74.9,65,73.6L65,73.6z M69.2,7.2c0,0-0.1-0.1-0.1-0.1C69,7,69,7,68.9,6.9l-0.1,0C68.9,7,69,7.1,69.2,7.2L69.2,7.2z
	 M7.2,7L7.1,7.1c0,0-0.1,0.1-0.1,0.1c0,0,0,0,0,0.1C7,7.2,7.1,7.1,7.2,7L7.2,7z M43.2,36.1c-1-0.5-2-0.8-3-1
	c-0.9-0.1-1.9-0.1-2.8-0.2c-0.4-0.1-0.9-0.2-1.3-0.4c-0.4-0.2-0.7-0.4-1-0.6c-0.1,0-0.1-0.1-0.2-0.1c-0.2-0.2-0.3-0.3-0.5-0.5
	s-0.3-0.3-0.5-0.5c0,0-0.1-0.1-0.1-0.1c-0.2-0.3-0.4-0.7-0.6-1.1c-0.2-0.4-0.3-0.9-0.4-1.3c0-0.5,0-1,0-1.5c0.1-0.4,0.2-0.9,0.3-1.3
	c0.2-0.4,0.4-0.7,0.6-1c0-0.1,0.1-0.1,0.1-0.2c0.2-0.2,0.3-0.3,0.5-0.5s0.3-0.3,0.5-0.5c0,0,0.1-0.1,0.1-0.1c0.3-0.2,0.7-0.4,1-0.6
	c0.4-0.2,0.9-0.3,1.3-0.4c0.5,0,1,0,1.5,0c0.4,0.1,0.9,0.2,1.3,0.4c0.4,0.2,0.7,0.4,1,0.6c0.1,0,0.1,0.1,0.2,0.1
	c0.2,0.2,0.3,0.3,0.5,0.5s0.3,0.3,0.5,0.5c0,0,0.1,0.1,0.1,0.1c0.2,0.3,0.4,0.7,0.6,1.1c0.2,0.4,0.3,0.9,0.4,1.3c0,0.2,0,0.5,0,0.7
	c0,1.8,1.5,3.3,3.3,3.3c1.8,0,3.3-1.5,3.3-3.3c0,0,0,0,0,0c0-3.9-1.9-7.5-5.1-9.8c-1.1-0.8-2.2-1.3-3.5-1.7v-3.9
	c0-1.8-1.4-3.3-3.2-3.3s-3.3,1.4-3.3,3.2c0,0,0,0.1,0,0.1v3.9c-0.1,0-0.2,0.1-0.4,0.1c-3.6,1.2-6.5,4.1-7.7,7.8
	c-1.8,5.7,0.9,11.8,6.2,14.4c1,0.5,2,0.8,3,1c0.9,0.1,1.9,0.1,2.8,0.2c0.4,0.1,0.9,0.2,1.3,0.4c0.4,0.2,0.7,0.4,1,0.6
	c0.1,0,0.1,0.1,0.2,0.1c0.2,0.2,0.3,0.3,0.5,0.5s0.3,0.3,0.5,0.5c0,0,0.1,0.1,0.1,0.1c0.2,0.3,0.4,0.7,0.6,1.1
	c0.2,0.4,0.3,0.9,0.4,1.3c0,0.5,0,1,0,1.5c-0.1,0.8-0.4,1.6-0.9,2.3c0,0.1-0.1,0.1-0.1,0.2c-0.2,0.2-0.3,0.3-0.5,0.5
	s-0.3,0.3-0.5,0.5c0,0-0.1,0.1-0.1,0.1c-0.3,0.2-0.7,0.4-1.1,0.6c-0.4,0.2-0.9,0.3-1.3,0.4c-0.9,0.1-1.9,0-2.7-0.4
	c-0.4-0.2-0.7-0.4-1-0.6c-0.1,0-0.1-0.1-0.2-0.1c-0.2-0.2-0.3-0.3-0.5-0.5s-0.3-0.3-0.5-0.5c0,0-0.1-0.1-0.1-0.1
	c-0.2-0.3-0.4-0.7-0.6-1.1c-0.2-0.4-0.3-0.9-0.4-1.3c0-0.2,0-0.5,0-0.7c0-1.8-1.5-3.3-3.3-3.3c-1.8,0-3.3,1.5-3.3,3.3c0,0,0,0,0,0
	c0,3.9,1.9,7.5,5.1,9.8c1.1,0.8,2.2,1.3,3.5,1.7v3.9c0,1.8,1.4,3.3,3.2,3.3s3.3-1.4,3.3-3.2c0,0,0-0.1,0-0.1v-3.9
	c0.1,0,0.2-0.1,0.4-0.1c3.6-1.2,6.5-4.1,7.7-7.8C51.2,44.8,48.6,38.7,43.2,36.1L43.2,36.1z"/>
</svg>
